<?xml version="1.0" encoding="UTF-8"?>
<svg version="1.1" viewBox="0 0 2048 659" width="1280" height="1280" xmlns="http://www.w3.org/2000/svg">
<path transform="translate(261,381)" d="m0 0h1556l1 1v31l-2 1h-1232l-353-1-1-1v-28l1-2z" fill="#3B8737"/>
<path transform="translate(587,104)" d="m0 0h12l17 5 113 1 48 1 31 3 17 4 12 5 9 8 3 5v5l-12 16-12 13-7 7-11 9-10 8-20 14-13 10-33 22-20 14-18 13-23 15-19 12-22 13-14 8-18 11-19 11-24 11-24 14-15 6-9-3-10-9-4-10v-24l4-15 5-12 6-12 5-12 8-16 6-15 6-19 4-16 3-15 3-12 8-18 6-21 1-11 4-8 5-6 10-6z" fill="#CA9759"/>
<path transform="translate(1218,90)" d="m0 0h51l4 1 1 144 1 4 12-12 8-7 8-8 8-7 13-12 28-28 2-1h66l-2 4-42 42-7 8-26 26 2 5 10 13 11 14 14 18 13 16 12 16 11 13 10 14v2h-64l-7-7-9-11-10-12-11-14-12-15-10-13-4-1-8 7-11 11-6 8-1 47h-54l-1-1-1-106v-157z" fill="#3C8738"/>
<path transform="translate(333,102)" d="m0 0h32l18 2 31 8 14 6 6 5-1 9-11 28-3 5-5-1-21-9-14-4-18-3h-28l-13 4-10 6-6 10v16l4 6 9 6 21 7 49 14 21 8 14 8 10 9 7 10 5 14 1 4 1 18-2 12-5 13-7 11-7 8-14 11-16 7-18 5-20 3-19 1-24-2-24-4-24-8-16-8-8-7 3-11 13-29 9 3 16 8 12 5 18 5 14 2 25 1 17-3 9-4 7-6 4-8v-13l-4-8-10-6-14-6-24-6-12-2-30-9-18-8-11-8-8-7-6-9-5-11-2-9v-23l3-13 8-15 8-10 9-8 15-9 18-6 18-4z" fill="#3D8738"/>
<path transform="translate(1537,160)" d="m0 0h14l22 3 16 5 16 8 9 6 10 9 7 7 7 10 7 15 5 17v35l-5 21-8 16-7 9-16 16-15 9-15 6-9 3-27 3h-9l-24-3-15-5-14-7-12-9-8-7-8-10-8-13-5-11-3-10-2-20 1-21 2-11 6-15 6-11 8-10 11-11 13-9 19-9 17-4zm2 46-12 3-8 4-11 9-7 11-4 12-2 11 1 12 4 16 7 12 8 8 11 6 9 2 16 1 14-3 10-5 10-10 5-9 3-8 2-16-1-14-3-12-6-11-4-5-11-8-10-4-10-2z" fill="#3F883A"/>
<path transform="translate(1062,161)" d="m0 0h27l19 3 13 5 15 8 10 9 8 10 7 15 3 13 2 16v114l-1 1h-49l-1-2-1-18-11 9-8 5-11 5-11 2-9 1h-22l-16-3-14-6-13-10-6-8-6-12-3-12v-9l4-17 5-10 6-7 11-8 10-5 14-4 14-2 14-1 48-1-2-14-6-11-9-6-10-4-10-2h-17l-16 3-16 6-11 6-4-2-8-15-6-15v-5l11-7 16-7 13-4zm12 113-18 2-9 3-7 7-2 5-1 10 4 10 8 7 9 3 7 1h10l11-2 12-6 8-8 4-7 1-4v-17l-1-3-2-1z" fill="#3D8838"/>
<path transform="translate(1696,120)" d="m0 0h43l13 1v46l47 1v41l-1 1-8 1h-38l1 88 2 6 9 6 7 3h10l15-5 3 1 11 30v6l-6 5-12 4-25 3h-12l-16-3-12-5-11-7-8-7-5-8-5-13-2-8-1-18v-78h-28l-2-7-1-37h30l1-46z" fill="#3F893B"/>
<path transform="translate(890,91)" d="m0 0h53l1 1v262l-2 1h-49l-3-1-1-4v-256z" fill="#40883B"/>
<path transform="translate(1248,456)" d="m0 0h17l8 4 8 9 9 12 9 11 11 14 11 13 6 2 1-61 1-4h17l8 1v112l-6 2h-13l-8-7-24-28-12-15-11-14-5-4-2-1-1 67-3 2h-17l-2-1-2-15v-50l-1-21v-27z" fill="#D4D593"/>
<path transform="translate(820,120)" d="m0 0 9 1 8 2 9 8 3 5v5l-12 16-12 13-7 7-11 9-10 8-20 14-13 10-33 22-20 14-18 13-23 15-19 12-22 13-14 8-18 11-19 11-24 11-17 10-6 1 3-3 20-12 11-6 28-15 19-11 18-11 16-10 5-4h2v-2l-7 2-2-5-1-2 1-2-4 1-2-4h-2l-1-5 7 2 1-2h3v-2l-3 1 1-3h2v-2h-5l7-7 4 1 3 2-1-5 4-2 7 1 1-5 1-2 6 1 2 1v2h4 3l1-2-2-1h2l-1-3 3-4 6-10h2l1-5 5-1 2-2 9-5 5-1v-2l5-2 1-7h6l6 3v-2l5-1 1-2 2 3h5l-3-8h2v-4l-1-3h2l1 2 3 1 2 4 2 1-2-7-3-7 1-2h9l5-3h3v-2l-5 1-1-4h6v2l5 1 1 1-1-3-5-4-4-2-4-8 1-1-11-3v-3l9-2 4 2-1 3 5 5 2 4 2 2 3 2 4 2-2-8 10 5v-2h-3v-4l2-1 1-4 12-3-8-4v-1l10-2 6-1v-3h-5v-2h9l6-4h2l1-4 9-4-10-3 3-2 5-2 1-3-6-1z" fill="#BD8B54"/>
<path transform="translate(261,381)" d="m0 0h256v1h-60v31h-226l-1-1v-28l1-2z" fill="#3D8636"/>
<path transform="translate(609,456)" d="m0 0h11l1 1 1 31v14h53l2-37 1-7 4-2h21v99l-1 15-4 1h-18l-3-2-1-15v-20l-2-9-2-1-51-1v25l-1 21-7 2h-11l-3-1-2-15-1-71v-26l1-1z" fill="#D5D694"/>
<path transform="translate(1086,455)" d="m0 0h37l15 2 12 5 10 8 6 9 2 7v20l-3 10-6 8-7 6-11 5-11 3-7 1-28 1-1 21-2 9-7 2h-11l-4-1-2-7v-101l2-5 6-2zm17 20-8 4-2 10v19l2 8 5 3 8 1h10l9-2 9-6 5-7 1-3v-13l-4-7-8-4-15-3z" fill="#D5D695"/>
<path transform="translate(957,455)" d="m0 0h42l17 2 12 6 10 9 5 10 2 9v10l-3 12-6 10-7 7-12 5-17 3-27 2-4 29-5 2h-16l-2-1-1-12v-99l2-2zm20 20-5 2-2 5v11l2 24 1 2h28l9-3 6-5 4-8v-10l-3-8-4-5-6-3-5-1z" fill="#D4D593"/>
<path transform="translate(490,455)" d="m0 0h32l17 2 16 6 8 6 5 8 3 10 1 7v10l-2 9-6 10-8 7-8 4-17 4-10 1h-18l-5-1-1 25-1 7-1 1h-14l-6-2-2-6-1-20v-72l1-14 2-1zm15 20-7 2-1 6v22l2 12 5 2h26l10-5 5-6 2-6-1-10-4-8-7-6-12-3z" fill="#D5D695"/>
<path transform="translate(1400,455)" d="m0 0h71l1 1v11l-2 7-1 1h-52l-7 1v27l55 1 1 1-1 16-1 1h-56l1 30 18-1 45 2 1 1v15l-1 2-5 1h-82l-1-90-1-20 1-3 8-3z" fill="#D4D592"/>
<path transform="translate(1525,455)" d="m0 0h31l12 2 9 5 1 5-6 11-2 2-9-2-17-3h-12l-9 3-5 4-1 2v8l5 5 9 4 26 7 12 5 9 7 5 8 1 3v13l-6 12-9 10-10 5-14 3h-15l-19-3-14-5-5-5v-7l4-10 9 2 17 5 6 1h18l8-3 5-6v-6l-5-6-15-5-28-8-9-5-6-7-5-12v-13l3-9 5-5 11-8 9-3z" fill="#D5D696"/>
<path transform="translate(788,456)" d="m0 0h25l1 90 1 4 7 1 51 1v19l-5 1h-58l-21-1-1-2-1-42v-67z" fill="#D5D695"/>
<path transform="translate(820,120)" d="m0 0 9 1 8 2 9 11-2 1 2 5-6 9-9 7-5 5-7 8-19 14-13 10-19 13-6 4-1-4-4-2 2 4-1 5-4-1-4-5-5-5-2-3h2v-4l-1-3h2l1 2 3 1 2 4 2 1-2-7-3-7 1-2h9l5-3h3v-2l-5 1-1-4h6v2l5 1 1 1-1-3-5-4-4-2-4-8 1-1-11-3v-3l9-2 4 2-1 3 5 5 2 4 2 2 3 2 4 2-2-8 10 5v-2h-3v-4l2-1 1-4 12-3-8-4v-1l10-2 6-1v-3h-5v-2h9l6-4h2l1-4 9-4-10-3 3-2 5-2 1-3-6-1z" fill="#743B10"/>
<path transform="translate(891,456)" d="m0 0h24l1 1v66l-1 47-2 1h-17l-5-2-1-7v-105z" fill="#D6D799"/>
<path transform="translate(751,456)" d="m0 0h7l1 1v20l-1 63-1 29-3 1h-15l-4-2-1-3-1-14v-94z" fill="#D2D38D"/>
<path transform="translate(1199,456)" d="m0 0h20l-1 28-1 85-5 2h-12l-6-2-1-8v-104z" fill="#D3D490"/>
<path transform="translate(839,151)" d="m0 0 1 2-9 11-13 13-11 9-10 8-20 14-13 10-33 22-20 14-18 13-23 15-19 12-22 13-14 8-18 11-19 11-24 11-17 10-6 1 3-3 20-12 11-6 28-15 19-11 18-11 16-10 11-8 22-14 15-10 10-7 9-7 11-8 7-2 10-7 5-4 5-5 11-6 12-7 7-5h2l2-4 3-1v-2l14-10 9-7 5-3 14-13 7-8z" fill="#649D59"/>
<path transform="translate(537,314)" d="m0 0 4 5 2 3h4l1 5 2 1 3 5 9 4-3 3 1 2-18 10-8 5-2-1 1-3-7-1-3-3v-3l-5-1-1-1v-7l2-2v-8l4-1 5 3 2-3h5l-2-6 3-2z" fill="#BE8C55"/>
<path transform="translate(1218,90)" d="m0 0h51v1l-49 1v258l1 5-3-1-1-106v-157z" fill="#F8F9EF"/>
<path transform="translate(731,111)" d="m0 0h46l31 3 17 4 8 3-4 1h-3l-1 4-6 3 2 1 1 4h-8l1-3-9 2-4 2h-7l1-2h2v-2l2-1h6v-3l-4-2 2-3h5l-4-2 7-2-6-2-37-2h-9l-29-2z" fill="#CCA86A"/>
<path transform="translate(839,151)" d="m0 0 1 2-9 11-13 13-11 9-10 8-20 14-13 10-27 18-2-1 6-7 5-4 5-5 11-6 12-7 7-5h2l2-4 3-1v-2l14-10 9-7 5-3 14-13 7-8z" fill="#689E5D"/>
<path transform="translate(789,115)" d="m0 0h17l9 3-6 3 2 2-7-1-1 3 4 2-1 3-8 1v2l-16 2v-4l12-5 4-1h-6l-15 6-12 2-4 1-7 1-10 4h-7l2-2 9-4 6-3 3 1h7l11-4 6-3 9-2 4-3z" fill="#C49155"/>
<path transform="translate(751,456)" d="m0 0h7l1 1v20l-1 63-1 29h-1v-46l1-65h-22v107h-1l-1-14v-94z" fill="#fff"/>
<path transform="translate(1664,167)" d="m0 0h16v1h-13v41h28l1 1v79h-1v-78h-28l-2-7z" fill="#F9F9F0"/>
<path transform="translate(839,151)" d="m0 0 1 2-9 11-13 13-11 9-10 8-10 7h-2l-1-3 4-2v-2l14-10 9-7 5-3 14-13 7-8z" fill="#608F4C"/>
<path transform="translate(574,304)" d="m0 0h2l-1 6 4 2 2 4 5-2 2-2 2 2 1 8-4 3-7 1-7-10v-2h-2l-1-6h2z" fill="#BE8C55"/>
<path transform="translate(807,137)" d="m0 0 7 2-1 3-4 3h-7l-2-1v2h5v3l-6 2h-13l1-3-3-1 10-5 10-3v2l2-2z" fill="#CDA164"/>
<path transform="translate(731,111)" d="m0 0h46l31 3 17 4 8 3-4 1-17-4-6-2-37-2h-9l-29-2z" fill="#F9F8F1"/>
<path transform="translate(544,203)" d="m0 0 3 1 2 2-1 5-3 2-3 5v5l-5 10-2-2-5 8-1-4 4-9 3-3 4-10-5 2 1-4 3-3 3-1z" fill="#BC8A51"/>
<path transform="translate(1199,456)" d="m0 0h20l-1 28-1 85-2 1 1-112-17-1z" fill="#fff"/>
<path transform="translate(1384,459)" d="m0 0h2v112h31v1h-32l-1-90-1-20z" fill="#fff"/>
<path transform="translate(700,111)" d="m0 0h13l3 1-1 4h-3v3l-5 2-1 1h-6l-3-2v-2l-4-1 6-2 1-2-2-1z" fill="#C59257"/>
<path transform="translate(754,170)" d="m0 0 2 1-2 6 7-1 1 3h5v2l-8 4-9-1-1 2-2-6-1-4z" fill="#BD8B54"/>
<path transform="translate(589,175)" d="m0 0 4 1-2 3-5 2-2 4 2 3 5-2 1 2h-2l-1 4-6-1-3-1-6 1 1-7 3-3 6-3 1-2z" fill="#AE7943"/>
<path transform="translate(1525,455)" d="m0 0h31l12 2 9 5 1 5-4 8-1-3 2-4v-4l-14-5-11-2h-24l-13 3-6 2 3-3 9-3z" fill="#fff"/>
<path transform="translate(781,124)" d="m0 0 7 2-4 2-7 3-12 2-4 1-7 1-10 4h-7l2-2 9-4 6-3 3 1h7l11-4z" fill="#BC894F"/>
<path transform="translate(534,212)" d="m0 0 1 3 5-2-3 10-4 4-4 13h2l-2 6h-2l-2 6-3 6-1-2 4-13 7-22z" fill="#EDE7CF"/>
<path transform="translate(620,236)" d="m0 0h4l-1 4h-2l-2 4-6 9-2 1v6l-2 1v-2l-6-2v-3h2l1-3 5-5z" fill="#73390F"/>
<path transform="translate(789,115)" d="m0 0h17l9 3-6 3 2 2h-14l2-3-3 3h-6l4-4z" fill="#A06B37"/>
<path transform="translate(599,151)" d="m0 0 3 1-3 6-7 2-2 4 7-1 1 3 5-1-2 5-5 1-7-6-3-1-1 3-4-1v-2l4-3 2-2h2l8-5z" fill="#73390F"/>
<path transform="translate(788,114)" d="m0 0 4 1 3 5-7 4-7 1-1 1h-7l3-1v-2h-5l-1-2 7-2h4v2l4-1 1-2h-3v-3l5 1z" fill="#CFBA77"/>
<path transform="translate(588,105)" d="m0 0 15 1 1 2-5 1h-10v2l-6 1 1-3-8 3-1 3-5 1-1 4-1 2-2-1-3 1 2-4 8-7 10-4z" fill="#7C4418"/>
<path transform="translate(1123,456)" d="m0 0h10l13 4 9 6 5 4 6 9 2 7v20h-1l-1-18-4-10-7-9-11-7-14-4-7-1z" fill="#fff"/>
<path transform="translate(588,278)" d="m0 0 2 1-1 5 8-1-1 2h-4l-2 4-6 5-5 1-3 4-3-1 2-4 6-4 3 1-2-8z" fill="#753B11"/>
<path transform="translate(1218,90)" d="m0 0h51v1l-49 1-1 12-1 43h-1v-56z" fill="#fff"/>
<path transform="translate(813,546)" d="m0 0 2 4 7 1 51 1v19h-2v-18h-57l-1-1z" fill="#fff"/>
<path transform="translate(587,104)" d="m0 0h12l17 5v1h-6l-7-3-15-1-13 5-8 6-7 9-2 7h-1l1-8 7-10 9-6 9-4z" fill="#F8F6EE"/>
<path transform="translate(702,195)" d="m0 0 6 3-1 2-8 1-2 4-3 3h-2l-1 4-3 3h-3l1-5h2l1-4 8-7z" fill="#73390F"/>
<path transform="translate(999,456)" d="m0 0h12l10 3 10 6 7 7 5 10 1 7-2-3-5-10-9-10-12-6-17-3z" fill="#fff"/>
<path transform="translate(523,456)" d="m0 0h10l12 3 12 5 7 6 5 10 1 7-2-3-5-10-4-5-10-6-13-4-13-2z" fill="#fff"/>
<path transform="translate(698,184)" d="m0 0 11 1 2 5-3-2 5 5 2 4 4 2v3l-4-1v-2l-4-2-5-5-9-6z" fill="#73390F"/>
<path transform="translate(632,194)" d="m0 0h3v2l4-1 2 5 3 1-2 4-2 2-8-3 2-2-5-2 2-4z" fill="#743A10"/>
<path transform="translate(659,110)" d="m0 0h70v1l-12 3-4-2h-50z" fill="#FCFBF8"/>
<path transform="translate(821,130)" d="m0 0 7 1-2 3-8 3-1 3-4 1-1-1-1-2-5-1 3-6h6v2h6z" fill="#CA9A5C"/>
<path transform="translate(791,149)" d="m0 0m-1 1 4 2-4 1 8 4v1l-7 1-5 2-2-2 1-1h-6l2-4 5-3z" fill="#C79559"/>
<path transform="translate(811,127)" d="m0 0h4v2l6 1 1 4h-8l1-3-9 2-4 2h-7l1-2h2v-2l2-1 11-1z" fill="#E0CFA4"/>
<path transform="translate(565,338)" d="m0 0m-1 1m-2 1h2v3l-19 10-8 5-6 1 3-3 20-12z" fill="#689449"/>
<path transform="translate(782,112)" d="m0 0h9l23 3 17 5 2 2-8-1-13-3-6-2-24-2z" fill="#fff"/>
<path transform="translate(807,137)" d="m0 0 7 2-1 2-18 4-3 1 1 3-3 2-4-1 1-2-3-1 10-5 10-3v2l2-2z" fill="#D3CF8C"/>
<path transform="translate(639,131)" d="m0 0 4 2-2 4h-3l-2 4-2-3-6 3-5 1-2-4 4-1v-2l10-1 4 1v-2l-2-1z" fill="#743A10"/>
<path transform="translate(729,139)" d="m0 0 6 1-2 2 2 4-7 1-1-1-11 4h-3l2-4 9-2-3-1z" fill="#763D12"/>
<path transform="translate(630,204)" d="m0 0 2 1-4 5-6 4-7 8-2 3-3-1 1-5 8-7 6-4 2-3z" fill="#73390F"/>
<path transform="translate(690,141)" d="m0 0h2v3h6l-3 2 2 3-14-2-5 1v2l-6 1v-3l5-1h3l-1-3 8-1z" fill="#BE8B53"/>
<path transform="translate(839,151)" d="m0 0 1 2-9 11-13 13-4 2 2-4 5-6 8-7 9-10z" fill="#62984E"/>
<path transform="translate(1248,456)" d="m0 0h17l8 4 8 9 9 12v3l-8-9-8-10-7-6-3-1-16-1z" fill="#fff"/>
<path transform="translate(671,183)" d="m0 0h4l2 4 5 3 2 4-4 3-1-4-8-3 1-2-6-1 2-3z" fill="#73390F"/>
<path transform="translate(539,221)" d="m0 0 3 1-4 9-2 2-1-2-5 8-1-4 4-9z" fill="#773E13"/>
<path transform="translate(1696,300)" d="m0 0h1l4 17 8 16 3 3v2l4 2 3 4-4-2-7-6-5-8-5-13-2-8z" fill="#F4F3E5"/>
<path transform="translate(560,208)" d="m0 0h2l-2 5-7 8-2 5-1 1h-5l7-11 6-7z" fill="#763D12"/>
<path transform="translate(792,124)" d="m0 0h9l-2 2-13 4-9 4-6 1v-2l-2-1 13-4z" fill="#D1D18B"/>
<path transform="translate(815,118)" d="m0 0 7 1 4 3-1 4-2 1h-6v-2l-4-2v-4z" fill="#D3B782"/>
<path transform="translate(1291,519)" d="m0 0 5 4 9 11 8 10 6 7-1 2-10-11-9-11-8-10z" fill="#fff"/>
<path transform="translate(1570,515)" d="m0 0 5 2 6 7 3 7v13l-5 10-1-2 4-9v-9l-4-9-7-8z" fill="#fff"/>
<path transform="translate(614,177)" d="m0 0 4 1v4h2v4l-5 1-3-3-4-2 1-3z" fill="#73390F"/>
<path transform="translate(508,287)" d="m0 0 4 2 8 6 4 2-1 5h-2v-2l-3-1-3-3v-2l-5-2-2-2z" fill="#AE7A46"/>
<path transform="translate(748,187)" d="m0 0h2l5 11-1 3-4-3v-3l-4-1v-2h-2v-3z" fill="#C08E55"/>
<path transform="translate(838,125)" d="m0 0 4 2 6 7 1 7-5 7-3-1v-2h2l2-7v-4l-7-8z" fill="#C4C5A0"/>
<path transform="translate(754,130)" d="m0 0 3 1v3l-13 5h-7l2-2 9-4z" fill="#73390F"/>
<path transform="translate(666,234)" d="m0 0 1 2-4 8-7 3-5 2 1-3 8-7z" fill="#743A10"/>
<path transform="translate(772,114)" d="m0 0h16v2l-5-1v3h3l-1 3h-4l-1-2-9-3z" fill="#A4713C"/>
<path transform="translate(728,123)" d="m0 0h7l-4 3-2 1 8 1v1l-11 1h-6l-3 1-1-3 11-3z" fill="#8F5829"/>
<path transform="translate(571,236)" d="m0 0 3 3 1 12h-3l-4-7 2-6z" fill="#BD8A53"/>
<path transform="translate(702,111)" d="m0 0h11l3 1-1 4h-3l-9-1-2-3z" fill="#A06D3B"/>
<path transform="translate(616,110)" d="m0 0h39v1l-10 2-29-2z" fill="#fff"/>
<path transform="translate(662,130)" d="m0 0 8 1 1 3-8 3-7 1-2-1v-3h5l4-1z" fill="#935D2D"/>
<path transform="translate(503,328)" d="m0 0 5 1 3 2-1 6-4 1v-4h-3l-1-4z" fill="#BE8C55"/>
<path transform="translate(604,271)" d="m0 0 2 1-1 2 4-1v2l3 1-8 2-6 5-5-5 1-2 3 1v2l5-1 1-6z" fill="#73390F"/>
<path transform="translate(589,175)" d="m0 0 4 1-2 3-6 3-3 2h-5l1-3 6-3 1-2z" fill="#73390F"/>
<path transform="translate(627,151)" d="m0 0 5 1-2 1v2l-7 2-8 4-4-1 7-4z" fill="#73390F"/>
<path transform="translate(770,125)" d="m0 0 6 1-3 3-9 3h-6l4-4z" fill="#CDA162"/>
<path transform="translate(531,249)" d="m0 0 1 2-6 14-3 2-1-3 3-9 2 1 2-4z" fill="#B8854F"/>
<path transform="translate(574,220)" d="m0 0v3l-13 13-3-1 9-11h3v-2z" fill="#73390F"/>
<path transform="translate(788,114)" d="m0 0 4 1 3 5-7 4-4-1 5-2-3-1v-2h-3v-3l5 1z" fill="#CDAA6D"/>
<path transform="translate(534,212)" d="m0 0 1 3 5-2-3 10-4 3v-10z" fill="#D9CB97"/>
<path transform="translate(578,113)" d="m0 0 5 1-5 8-4 3-1-6 1-2h2z" fill="#743A10"/>
<path transform="translate(592,245)" d="m0 0 1 3-8 6-1 2h-2l-2 4-2-1 10-13z" fill="#73390F"/>
<path transform="translate(742,190)" d="m0 0 4 5 1 2h-2l-1 4h-2v-2h-2l-3-6z" fill="#BA8852"/>
<path transform="translate(752,144)" d="m0 0h8v2l-14 4h-5l1-2z" fill="#925C2C"/>
<path transform="translate(769,113)" d="m0 0 3 2 6 3-2 3h-8l-1-6h2z" fill="#C89A5C"/>
<path transform="translate(582,109)" d="m0 0h2l-2 5-5 1-1 2-8 1 3-4 4-1 3-3z" fill="#B37F4A"/>
<path transform="translate(783,199)" d="m0 0h2l1 3-13 9h-3l5-6 6-4h2z" fill="#7BA364"/>
<path transform="translate(648,168)" d="m0 0 3 1 1 2 5 3-1 2h-10l1-6z" fill="#73390F"/>
<path transform="translate(807,117)" d="m0 0 8 1-6 3 2 2h-14l4-4h6z" fill="#7B4216"/>
<path transform="translate(579,108)" d="m0 0 2 1-5 4-1 2-5 1-1 4-1 2-2-1-3 1 2-4 8-7z" fill="#874F21"/>
<path transform="translate(811,115)" d="m0 0 11 2 11 4-4 1-17-4z" fill="#F7F4EB"/>
<path transform="translate(628,159)" d="m0 0 6 2v2l-9 2-3-3 2-2z" fill="#763C12"/>
<path transform="translate(799,119)" d="m0 0 2 1-3 5h-6l-1 1h-9l1-2 5-1h8l1-3z" fill="#B7834B"/>
<path transform="translate(811,119)" d="m0 0h2l1 4 4 2 2 3-5 1-2-3-3-1-1-3-4-2z" fill="#BD8A50"/>
<path transform="translate(550,177)" d="m0 0h2v12l1 2h-4v-4l-3 4-2-1v-3l3-1 2-4 2 1z" fill="#B88650"/>
<path transform="translate(669,172)" d="m0 0h5v2l-4 2h-5l-1 3-5 1v-3z" fill="#73390F"/>
<path transform="translate(805,126)" d="m0 0 2 1-1 3-8 1v2l-8 1 3-3 7-4z" fill="#955E2E"/>
<path transform="translate(273,122)" d="m0 0 2 1-16 16v-3l9-10z" fill="#B7C69F"/>
<path transform="translate(547,348)" d="m0 0m-1 1 1 3-10 6-6 1 3-3z" fill="#599347"/>
<path transform="translate(800,130)" d="m0 0h6l2 1-1 2-5 2h-7l1-2h2v-2z" fill="#D0C07C"/>
<path transform="translate(583,185)" d="m0 0 3 3 5-2 1 2h-2l-1 4-6-1-3-1 2-4z" fill="#73390F"/>
<path transform="translate(972,539)" d="m0 0 4 1h-3l-3 22h-1l1-22z" fill="#fff"/>
<path transform="translate(514,346)" d="m0 0 3 2 1 6h-5l-2-4 1-3z" fill="#BE8C55"/>
<path transform="translate(661,217)" d="m0 0 1 4 4 2-1 1 3 2-1 3-5-4-4-1 2-6z" fill="#73390F"/>
<path transform="translate(687,143)" d="m0 0 2 1-2 2-9 2v2l-6 1v-3l5-1h3l-1-3z" fill="#73390F"/>
<path transform="translate(1320,554)" d="m0 0 7 6 5 6 7 4-4 1-8-7-7-8z" fill="#fff"/>
<path transform="translate(744,162)" d="m0 0 5 2 2 2-2 1h-10v-2z" fill="#73390F"/>
<path transform="translate(589,130)" d="m0 0 4 1v3l2 1v2l-3 1-5-2 2-2-3-2z" fill="#986232"/>
<path transform="translate(754,170)" d="m0 0 2 1-2 6 3 1-5 2-3-3 1-4z" fill="#73390F"/>
<path transform="translate(793,115)" d="m0 0h13l5 1v2l-10 1-2-2-6-1z" fill="#BD9E62"/>
<path transform="translate(535,228)" d="m0 0h1l2 7-3 3-5 1 2-5z" fill="#C18E54"/>
<path transform="translate(806,132)" d="m0 0 3 2-1 2h-3v2l-7 1v-3z" fill="#A7723D"/>
<path transform="translate(551,217)" d="m0 0 3 2-3 7-1 1h-5z" fill="#73390F"/>
<path transform="translate(574,151)" d="m0 0 10 1-1 3h-8l-2-3z" fill="#73390F"/>
<path transform="translate(808,141)" d="m0 0h5l-4 4h-7l-2-1-1 2-1-3z" fill="#C89558"/>
<path transform="translate(1501,465)" d="m0 0 2 1-7 8-3 7h-1l1-8 4-5z" fill="#fff"/>
<path transform="translate(751,160)" d="m0 0 8 5-2 2h-3l-6-5z" fill="#D2D38D"/>
<path transform="translate(787,119)" d="m0 0 3 2-9 4-4-1 3-1 1-3z" fill="#EADEC2"/>
<path transform="translate(544,203)" d="m0 0 3 1 2 2-1 5-5-1-1-5z" fill="#AB7743"/>
<path transform="translate(573,120)" d="m0 0 3 3 5 1-8 4-4-2v-3h3z" fill="#BE8C55"/>
<path transform="translate(703,117)" d="m0 0 3 1 1 3-1 1h-6l-2-4z" fill="#773E13"/>
<path transform="translate(511,273)" d="m0 0 3 4-1 4-5 2 1-6z" fill="#D6BC95"/>
<path transform="translate(558,190)" d="m0 0h3v5l-5 5-3 1 1-4 4-4z" fill="#73390F"/>
<path transform="translate(656,155)" d="m0 0 6 1 1 2-12 2h-3l1-2z" fill="#73390F"/>
<path transform="translate(618,301)" d="m0 0h4v2h-2l1 2 2 1-6 3-2-5 3-1z" fill="#BF8C55"/>
<path transform="translate(598,193)" d="m0 0h2v2l-5 3h-2l1 4-2 1v-2l-2-1v-3z" fill="#783E13"/>
<path transform="translate(668,122)" d="m0 0 4 1-8 4-5-1v-2z" fill="#73390F"/>
<path transform="translate(566,119)" d="m0 0 1 4-7 6v-5z" fill="#B6834E"/>
<path transform="translate(275,231)" d="m0 0 5 2 6 3 1 3-6-2-5-3z" fill="#B09471"/>
<path transform="translate(670,191)" d="m0 0 3 1v2l3 3-3 1-5-2v-4z" fill="#AE7A46"/>
<path transform="translate(644,164)" d="m0 0 2 2-5 2h-5v2l-4 2-1-3 8-4z" fill="#874F22"/>
<path transform="translate(805,136)" d="m0 0 3 3-4 2v-2l-4 2-9 1 1-2 9-2h4z" fill="#C79458"/>
<path transform="translate(706,131)" d="m0 0 8 1v2h-11l-2-2z" fill="#73390F"/>
<path transform="translate(694,122)" d="m0 0 4 1-4 2-11 1v-2l7-1z" fill="#73390F"/>
<path transform="translate(572,243)" d="m0 0 2 1 1 7h-3l-3-4v-2z" fill="#73390F"/>
<path transform="translate(1354,164)" d="m0 0 3 1-11 9h-3l9-9z" fill="#F1EFDC"/>
<path transform="translate(719,145)" d="m0 0h4v2l-7 3h-3l2-4z" fill="#753B11"/>
<path transform="translate(639,131)" d="m0 0 4 2-2 4h-3l-2 4-1-3 1-3h3v-2l-2-1z" fill="#90592A"/>
<path transform="translate(694,134)" d="m0 0h7v2l-4 3h-5v-2h2z" fill="#A5713E"/>
<path transform="translate(539,203)" d="m0 0 2 4-5 5-1-3 2-5z" fill="#D9CE9A"/>
<path transform="translate(795,189)" d="m0 0 2 1-8 6-1-2zm-7 7m-3 1h3l-1 4h-2l-1-3z" fill="#6F622C"/>
<path transform="translate(566,184)" d="m0 0h3l-1 3-3 2h-5l2-4z" fill="#73390F"/>
<path transform="translate(694,111)" d="m0 0h6l-1 5-5 1z" fill="#D2B377"/>
<path transform="translate(581,290)" d="m0 0m-1 1m-3 1h3l-2 4-2 3-3-1 2-4z" fill="#73390F"/>
</svg>
